# xmcd CD database file
#
# Track frame offsets:
#	183
#	23645
#	38760
#	64853
#	84050
#	111370
#	138635
#	151670
#
# Disc length: 2229 seconds
#
# Revision: 0
# Processed by: cddbd v1.4PL0 Copyright (c) Steve Scherf et al.
# Submitted via: CDex 1.40PlusFr
#
DISCID=5908b308
DTITLE=rufus thomas - this woman is poison
DYEAR=1900
DGENRE=Blues
TTITLE0=that woman is poison
TTITLE1=i just got to know
TTITLE2=big fine hunk of woman
TTITLE3=blues in the basement
TTITLE4=somebody's got to go
TTITLE5=breaking my back
TTITLE6=the walk
TTITLE7=all night worker
EXTD=ID3G: 0
EXTT0=
EXTT1=
EXTT2=
EXTT3=
EXTT4=
EXTT5=
EXTT6=
EXTT7=
PLAYORDER=
